<svg width="16" height="14" viewBox="0 0 16 14" fill="none" xmlns="http://www.w3.org/2000/svg">
<path d="M7.76515 4.86848V7.53515M7.76515 10.2018H7.77182M6.62515 1.44182L0.978484 10.8685C0.862063 11.0701 0.800462 11.2987 0.79981 11.5315C0.799158 11.7643 0.859478 11.9932 0.974768 12.1955C1.09006 12.3978 1.2563 12.5663 1.45696 12.6844C1.65761 12.8025 1.88568 12.8659 2.11848 12.8685H13.4118C13.6446 12.8659 13.8727 12.8025 14.0733 12.6844C14.274 12.5663 14.4402 12.3978 14.5555 12.1955C14.6708 11.9932 14.7311 11.7643 14.7305 11.5315C14.7298 11.2987 14.6682 11.0701 14.5518 10.8685L8.90515 1.44182C8.7863 1.24589 8.61897 1.0839 8.41928 0.971473C8.2196 0.859049 7.99431 0.799988 7.76515 0.799988C7.53599 0.799988 7.3107 0.859049 7.11102 0.971473C6.91134 1.0839 6.744 1.24589 6.62515 1.44182Z" stroke="#AA642B" stroke-width="1.6" stroke-linecap="round" stroke-linejoin="round"/>
</svg>
