<svg width="15" height="15" viewBox="0 0 15 15" fill="none" xmlns="http://www.w3.org/2000/svg">
<path d="M2.80005 9.46665H2.13338C1.77976 9.46665 1.44062 9.32618 1.19057 9.07613C0.940525 8.82608 0.800049 8.48694 0.800049 8.13332V2.13332C0.800049 1.7797 0.940525 1.44056 1.19057 1.19051C1.44062 0.940464 1.77976 0.799988 2.13338 0.799988H8.13338C8.487 0.799988 8.82614 0.940464 9.07619 1.19051C9.32624 1.44056 9.46672 1.7797 9.46672 2.13332V2.79999M6.80005 5.46665H12.8C13.5364 5.46665 14.1334 6.06361 14.1334 6.79999V12.8C14.1334 13.5364 13.5364 14.1333 12.8 14.1333H6.80005C6.06367 14.1333 5.46672 13.5364 5.46672 12.8V6.79999C5.46672 6.06361 6.06367 5.46665 6.80005 5.46665Z" stroke="#BA681F" stroke-width="1.6" stroke-linecap="round" stroke-linejoin="round"/>
</svg>
