<svg width="14" height="15" viewBox="0 0 14 15" fill="none" xmlns="http://www.w3.org/2000/svg">
<path d="M3.46672 6.80005V4.13338C3.46672 3.24933 3.8179 2.40148 4.44303 1.77636C5.06815 1.15124 5.91599 0.800049 6.80005 0.800049C7.6841 0.800049 8.53195 1.15124 9.15707 1.77636C9.78219 2.40148 10.1334 3.24933 10.1334 4.13338V6.80005M2.13338 6.80005H11.4667C12.2031 6.80005 12.8 7.397 12.8 8.13338V12.8C12.8 13.5364 12.2031 14.1334 11.4667 14.1334H2.13338C1.397 14.1334 0.800049 13.5364 0.800049 12.8V8.13338C0.800049 7.397 1.397 6.80005 2.13338 6.80005Z" stroke="#1E1E1E" stroke-width="1.6" stroke-linecap="round" stroke-linejoin="round"/>
</svg>
