<svg width="3" height="13" viewBox="0 0 3 13" fill="none" xmlns="http://www.w3.org/2000/svg">
<path d="M1.46665 6.80005C1.83484 6.80005 2.13332 6.50157 2.13332 6.13338C2.13332 5.76519 1.83484 5.46672 1.46665 5.46672C1.09846 5.46672 0.799988 5.76519 0.799988 6.13338C0.799988 6.50157 1.09846 6.80005 1.46665 6.80005Z" stroke="#E27F29" stroke-width="1.6" stroke-linecap="round" stroke-linejoin="round"/>
<path d="M1.46665 2.13338C1.83484 2.13338 2.13332 1.83491 2.13332 1.46672C2.13332 1.09853 1.83484 0.800049 1.46665 0.800049C1.09846 0.800049 0.799988 1.09853 0.799988 1.46672C0.799988 1.83491 1.09846 2.13338 1.46665 2.13338Z" stroke="#E27F29" stroke-width="1.6" stroke-linecap="round" stroke-linejoin="round"/>
<path d="M1.46665 11.4667C1.83484 11.4667 2.13332 11.1682 2.13332 10.8C2.13332 10.4319 1.83484 10.1334 1.46665 10.1334C1.09846 10.1334 0.799988 10.4319 0.799988 10.8C0.799988 11.1682 1.09846 11.4667 1.46665 11.4667Z" stroke="#E27F29" stroke-width="1.6" stroke-linecap="round" stroke-linejoin="round"/>
</svg>
