<svg width="16" height="14" viewBox="0 0 16 14" fill="none" xmlns="http://www.w3.org/2000/svg">
<path d="M10.6666 9.46508L7.99997 6.79841M7.99997 6.79841L5.33331 9.46508M7.99997 6.79841V12.7984M13.5933 11.0584C14.2435 10.7039 14.7572 10.143 15.0532 9.46416C15.3492 8.78532 15.4108 8.02723 15.2281 7.30954C15.0454 6.59184 14.629 5.95542 14.0444 5.50071C13.4599 5.046 12.7405 4.7989 12 4.79841H11.16C10.9582 4.0179 10.5821 3.2933 10.0599 2.67907C9.5378 2.06484 8.8832 1.57698 8.14537 1.25215C7.40754 0.92732 6.60567 0.773983 5.80005 0.803665C4.99443 0.833348 4.20602 1.04528 3.49409 1.42352C2.78216 1.80176 2.16525 2.33648 1.68972 2.98746C1.2142 3.63845 0.892434 4.38877 0.748627 5.18201C0.60482 5.97525 0.64271 6.79076 0.859449 7.56725C1.07619 8.34374 1.46613 9.06099 1.99997 9.66508" stroke="#AEA49B" stroke-width="1.6" stroke-linecap="round" stroke-linejoin="round"/>
</svg>
